<?xml version="1.0" encoding="UTF-8" standalone="no"?>
<!-- Generator: Adobe Illustrator 16.0.0, SVG Export Plug-In . SVG Version: 6.00 Build 0)  -->

<svg
   xmlns:dc="http://purl.org/dc/elements/1.1/"
   xmlns:cc="http://creativecommons.org/ns#"
   xmlns:rdf="http://www.w3.org/1999/02/22-rdf-syntax-ns#"
   xmlns:svg="http://www.w3.org/2000/svg"
   xmlns="http://www.w3.org/2000/svg"
   xmlns:sodipodi="http://sodipodi.sourceforge.net/DTD/sodipodi-0.dtd"
   xmlns:inkscape="http://www.inkscape.org/namespaces/inkscape"
   version="1.1"
   id="svg2"
   inkscape:output_extension="org.inkscape.output.svg.inkscape"
   sodipodi:docname="photo.svg"
   inkscape:version="0.48.3.1 r9886"
   sodipodi:version="0.32"
   x="0px"
   y="0px"
   width="515.56299"
   height="378.707"
   viewBox="0 0 515.56299 378.707"
   enable-background="new 0 0 580 580"
   xml:space="preserve"><metadata
   id="metadata31"><rdf:RDF><cc:Work
       rdf:about=""><dc:format>image/svg+xml</dc:format><dc:type
         rdf:resource="http://purl.org/dc/dcmitype/StillImage" /></cc:Work></rdf:RDF></metadata>
<sodipodi:namedview
   showgrid="false"
   inkscape:cy="328.35979"
   inkscape:cx="96.951643"
   inkscape:zoom="1.1141152"
   pagecolor="#ffffff"
   bordercolor="#666666"
   guidetolerance="10.0"
   objecttolerance="10.0"
   gridtolerance="10.0"
   borderopacity="1.0"
   id="base"
   inkscape:window-maximized="1"
   inkscape:current-layer="svg2"
   inkscape:window-y="24"
   inkscape:window-x="49"
   inkscape:pageopacity="0.0"
   inkscape:pageshadow="2"
   inkscape:window-width="1871"
   inkscape:window-height="1056"
   fit-margin-top="0"
   fit-margin-left="0"
   fit-margin-right="0"
   fit-margin-bottom="0">
	</sodipodi:namedview>
<defs
   id="defs4"><linearGradient
   id="linearGradient3769"><stop
     style="stop-color:#0093ff;stop-opacity:1;"
     offset="0"
     id="stop3771" /><stop
     id="stop3777"
     offset="0.5"
     style="stop-color:#00307c;stop-opacity:0.97254902;" /><stop
     style="stop-color:#647191;stop-opacity:1;"
     offset="1"
     id="stop3773" /></linearGradient>
	
	
		<inkscape:perspective
   inkscape:vp_z="580 : 290 : 1"
   inkscape:vp_y="6.1230318e-14 : 1000 : 0"
   inkscape:vp_x="0 : 290 : 1"
   sodipodi:type="inkscape:persp3d"
   id="perspective2441"
   inkscape:persp3d-origin="290 : 193.33333 : 1">
		</inkscape:perspective>
	
		<inkscape:perspective
   inkscape:vp_z="60 : 30 : 1"
   inkscape:vp_y="0 : 1000 : 0"
   inkscape:vp_x="0 : 30 : 1"
   sodipodi:type="inkscape:persp3d"
   id="perspective3452"
   inkscape:persp3d-origin="30 : 20 : 1">
		</inkscape:perspective>
	
		<inkscape:perspective
   inkscape:vp_z="744.09448 : 526.18109 : 1"
   inkscape:vp_y="0 : 1000 : 0"
   inkscape:vp_x="0 : 526.18109 : 1"
   sodipodi:type="inkscape:persp3d"
   id="perspective4471"
   inkscape:persp3d-origin="372.04724 : 350.78739 : 1">
		</inkscape:perspective>
	
		<inkscape:perspective
   inkscape:vp_z="12 : 6 : 1"
   inkscape:vp_y="0 : 1000 : 0"
   inkscape:vp_x="0 : 6 : 1"
   sodipodi:type="inkscape:persp3d"
   id="perspective4668"
   inkscape:persp3d-origin="6 : 4 : 1">
		</inkscape:perspective>
	
		<inkscape:perspective
   inkscape:vp_z="1 : 0.5 : 1"
   inkscape:vp_y="0 : 1000 : 0"
   inkscape:vp_x="0 : 0.5 : 1"
   sodipodi:type="inkscape:persp3d"
   id="perspective3826"
   inkscape:persp3d-origin="0.5 : 0.33333333 : 1">
		</inkscape:perspective>
	
		<inkscape:perspective
   inkscape:vp_z="1 : 0.5 : 1"
   inkscape:vp_y="0 : 1000 : 0"
   inkscape:vp_x="0 : 0.5 : 1"
   sodipodi:type="inkscape:persp3d"
   id="perspective3855"
   inkscape:persp3d-origin="0.5 : 0.33333333 : 1">
		</inkscape:perspective>
	
		<inkscape:perspective
   inkscape:vp_z="1 : 0.5 : 1"
   inkscape:vp_y="0 : 1000 : 0"
   inkscape:vp_x="0 : 0.5 : 1"
   sodipodi:type="inkscape:persp3d"
   id="perspective3909"
   inkscape:persp3d-origin="0.5 : 0.33333333 : 1">
		</inkscape:perspective>
	
		<inkscape:perspective
   inkscape:vp_z="1 : 0.5 : 1"
   inkscape:vp_y="0 : 1000 : 0"
   inkscape:vp_x="0 : 0.5 : 1"
   sodipodi:type="inkscape:persp3d"
   id="perspective11014"
   inkscape:persp3d-origin="0.5 : 0.33333333 : 1">
		</inkscape:perspective>
	
		<inkscape:perspective
   inkscape:vp_z="1 : 0.5 : 1"
   inkscape:vp_y="0 : 1000 : 0"
   inkscape:vp_x="0 : 0.5 : 1"
   sodipodi:type="inkscape:persp3d"
   id="perspective11066"
   inkscape:persp3d-origin="0.5 : 0.33333333 : 1">
		</inkscape:perspective>
	
		<inkscape:perspective
   inkscape:vp_z="1 : 0.5 : 1"
   inkscape:vp_y="0 : 1000 : 0"
   inkscape:vp_x="0 : 0.5 : 1"
   sodipodi:type="inkscape:persp3d"
   id="perspective15015"
   inkscape:persp3d-origin="0.5 : 0.33333333 : 1">
		</inkscape:perspective>
	
		<inkscape:perspective
   inkscape:vp_z="1 : 0.5 : 1"
   inkscape:vp_y="0 : 1000 : 0"
   inkscape:vp_x="0 : 0.5 : 1"
   sodipodi:type="inkscape:persp3d"
   id="perspective15058"
   inkscape:persp3d-origin="0.5 : 0.33333333 : 1">
		</inkscape:perspective>
</defs>
<rect
   style="color:#000000;fill:#ffffff;fill-opacity:1;fill-rule:evenodd;stroke:none;stroke-width:5.31500006;marker:none;visibility:visible;display:inline;overflow:visible;enable-background:accumulate"
   id="rect3789"
   width="67.276093"
   height="33.638046"
   x="225.62878"
   y="4.8804026" /><rect
   style="color:#000000;fill:#ffffff;fill-opacity:0.62948209;fill-rule:evenodd;stroke:none;stroke-width:5.31500006000000003;marker:none;visibility:visible;display:inline;overflow:visible;enable-background:accumulate"
   id="rect3787"
   width="305.3439"
   height="265.44974"
   x="148.83598"
   y="84.103828" /><g
   id="layer3"
   transform="matrix(48.14969,0,0,48.14969,-568.02327,-228.25675)"
   inkscape:label="Layout"
   display="none"
   style="display:none">
	<rect
   id="rect4134"
   x="1"
   y="1"
   display="inline"
   width="10"
   height="10"
   style="fill:none;stroke:#757575;stroke-width:0.1;display:inline" />
	<rect
   id="rect4136"
   x="2"
   y="2"
   display="inline"
   width="8"
   height="8"
   style="fill:none;stroke:#757575;stroke-width:0.1;display:inline" />
</g>
<g
   id="g3338"
   transform="matrix(1.3973279,-0.2437849,0.2437849,1.3973279,-216.82402,-251.13331)">
</g>
<path
   stroke="param(outline) #000"
   stroke-width="param(outline-width) 1"
   d="m 170.982,42.427 h 172.625 c 0.927,0 1.78,-0.503 2.23,-1.313 c 0.449,-0.811 0.423,-1.801 -0.067,-2.587 L 322.457,1.199 C 321.991,0.453 321.174,0 320.294,0 H 196.556 c -0.841,0 -1.628,0.415 -2.104,1.108 l -25.574,37.328 c -0.535,0.781 -0.594,1.793 -0.152,2.63 c 0.442,0.837 1.31,1.361 2.256,1.361 z M 281.613,9.558 v 24.146 h -46.77 V 9.558 h 46.77 z"
   id="path21"
   style="fill:#2c3e50;fill-opacity:1"
   inkscape:connector-curvature="0" />
<path
   stroke="param(outline) #000"
   stroke-width="param(outline-width) 1"
   d="m 394.95,42.181 h 68.214 c 0.842,0 1.629,-0.415 2.104,-1.109 c 0.475,-0.694 0.577,-1.579 0.272,-2.363 l -8.263,-21.295 c -0.38,-0.981 -1.324,-1.627 -2.377,-1.627 H 404 c -1.022,0 -1.947,0.611 -2.347,1.553 l -9.05,21.295 c -0.335,0.788 -0.252,1.691 0.22,2.404 c 0.473,0.713 1.272,1.142 2.127,1.142 z"
   id="path23"
   style="fill:#2c3e50;fill-opacity:1"
   inkscape:connector-curvature="0" />
<path
   stroke="param(outline) #000"
   stroke-width="param(outline-width) 1"
   d="m 67.358,42.033 h 45.886 c 0.777,0 1.512,-0.354 1.996,-0.963 c 0.483,-0.608 0.664,-1.404 0.488,-2.162 l -3.197,-13.82 c -0.268,-1.156 -1.297,-1.975 -2.484,-1.975 H 71.784 c -1.109,0 -2.09,0.716 -2.429,1.772 l -4.426,13.82 c -0.248,0.776 -0.111,1.623 0.369,2.281 c 0.481,0.659 1.246,1.047 2.06,1.047 z"
   id="path25"
   style="fill:#2c3e50;fill-opacity:1"
   inkscape:connector-curvature="0" />
<path
   stroke="param(outline) #000"
   stroke-width="param(outline-width) 1"
   d="M 471.063,51.894 H 44.5 C 19.849,51.894 0,71.743 0,96.394 v 237.813 c 0,24.651 19.849,44.5 44.5,44.5 h 426.563 c 24.651,0 44.5,-19.849 44.5,-44.5 V 96.394 c 0,-24.652 -19.849,-44.5 -44.5,-44.5 z M 304.75,331.144 c -65.251,0 -118.156,-52.904 -118.156,-118.156 c 0,-65.251 52.905,-118.125 118.156,-118.125 c 65.251,0 118.156,52.874 118.156,118.125 c 0,65.252 -52.905,118.156 -118.156,118.156 z"
   id="path27"
   style="fill:#2c3e50;fill-opacity:0.97254902"
   inkscape:connector-curvature="0" />
<path
   stroke="param(outline) #000"
   stroke-width="param(outline-width) 1"
   d="m 304.725,142.393 c -38.981,0.012 -70.572,31.623 -70.559,70.604 c 0,0.015 0,0.029 0,0.045 c 0.012,38.98 31.623,70.572 70.604,70.559 c 38.981,-0.012 70.572,-31.623 70.56,-70.604 c 0,-0.016 0,-0.03 0,-0.045 c -0.013,-38.981 -31.624,-70.572 -70.605,-70.559 z"
   id="path29"
   style="fill:#2c3e50;fill-opacity:0.97254902"
   inkscape:connector-curvature="0" />
</svg>